<svg width="32" height="32" viewBox="0 0 32 32" fill="none" xmlns="http://www.w3.org/2000/svg">
<path d="M18.808 7.404C19.1781 7.58896 19.5862 7.68524 20 7.68524C20.4138 7.68524 20.8219 7.58896 21.192 7.404L26.0707 4.964C26.2741 4.86235 26.5002 4.81441 26.7273 4.82476C26.9545 4.8351 27.1753 4.90339 27.3686 5.02311C27.562 5.14283 27.7215 5.31002 27.832 5.50878C27.9425 5.70753 28.0003 5.93125 28 6.15867V23.1773C27.9999 23.4249 27.9308 23.6675 27.8006 23.878C27.6704 24.0886 27.4841 24.2587 27.2627 24.3693L21.192 27.4053C20.8219 27.5903 20.4138 27.6866 20 27.6866C19.5862 27.6866 19.1781 27.5903 18.808 27.4053L13.192 24.5973C12.8219 24.4124 12.4138 24.3161 12 24.3161C11.5862 24.3161 11.1781 24.4124 10.808 24.5973L5.92934 27.0373C5.72581 27.139 5.49963 27.187 5.27235 27.1766C5.04506 27.1662 4.82421 27.0978 4.63083 26.9779C4.43744 26.858 4.27795 26.6906 4.16753 26.4917C4.05711 26.2927 3.99944 26.0689 4 25.8413V8.824C4.00014 8.57645 4.06918 8.33383 4.19941 8.1233C4.32963 7.91277 4.5159 7.74266 4.73734 7.632L10.808 4.596C11.1781 4.41104 11.5862 4.31476 12 4.31476C12.4138 4.31476 12.8219 4.41104 13.192 4.596L18.808 7.404Z" stroke="#827454" stroke-width="2" stroke-linecap="round" stroke-linejoin="round"/>
<path d="M20 7.68533V27.6853" stroke="#827454" stroke-width="2" stroke-linecap="round" stroke-linejoin="round"/>
<path d="M12 4.31467V24.3147" stroke="#827454" stroke-width="2" stroke-linecap="round" stroke-linejoin="round"/>
</svg>
