<svg width="32" height="32" viewBox="0 0 32 32" fill="none" xmlns="http://www.w3.org/2000/svg">
<path d="M16.0001 16V12C16.0001 11.6464 15.8596 11.3072 15.6096 11.0572C15.3595 10.8071 15.0204 10.6667 14.6667 10.6667H12.0001C11.6465 10.6667 11.3073 10.8071 11.0573 11.0572C10.8072 11.3072 10.6667 11.6464 10.6667 12V16" stroke="#827454" stroke-width="2" stroke-linecap="round" stroke-linejoin="round"/>
<path d="M21.3333 26.6667V22.6667C21.3333 22.3131 21.1929 21.9739 20.9428 21.7239C20.6928 21.4738 20.3536 21.3333 20 21.3333H17.3333C16.9797 21.3333 16.6406 21.4738 16.3905 21.7239C16.1405 21.9739 16 22.3131 16 22.6667V26.6667" stroke="#827454" stroke-width="2" stroke-linecap="round" stroke-linejoin="round"/>
<path d="M26.6667 29.3333V2.66666" stroke="#827454" stroke-width="2" stroke-linecap="round" stroke-linejoin="round"/>
<path d="M5.33325 16H26.6666" stroke="#827454" stroke-width="2" stroke-linecap="round" stroke-linejoin="round"/>
<path d="M5.33325 26.6667H26.6666" stroke="#827454" stroke-width="2" stroke-linecap="round" stroke-linejoin="round"/>
<path d="M5.33325 2.66666V29.3333" stroke="#827454" stroke-width="2" stroke-linecap="round" stroke-linejoin="round"/>
<path d="M5.33325 5.33334H26.6666" stroke="#827454" stroke-width="2" stroke-linecap="round" stroke-linejoin="round"/>
</svg>
